<svg id="Layer_1" data-name="Layer 1" xmlns="http://www.w3.org/2000/svg" xmlns:xlink="http://www.w3.org/1999/xlink" viewBox="0 0 1783.33 1448.07"><defs><style>.cls-1{fill:url(#Degradado_sin_nombre_49);}.cls-2{fill:url(#Degradado_sin_nombre_72);}.cls-3{fill:url(#Degradado_sin_nombre_55);}.cls-4{fill:#fcfcfc;opacity:0.19;}.cls-5{fill:url(#Degradado_sin_nombre_49-2);}.cls-6{fill:url(#Degradado_sin_nombre_49-3);}.cls-7{fill:url(#Degradado_sin_nombre_49-4);}.cls-8{fill:url(#Degradado_sin_nombre_55-2);}.cls-9{fill:url(#Degradado_sin_nombre_55-3);}.cls-10{fill:#003976;}.cls-11{opacity:0.65;}.cls-12{fill:url(#Degradado_sin_nombre_55-4);}.cls-13{fill:url(#Degradado_sin_nombre_55-5);}.cls-14{fill:url(#Degradado_sin_nombre_55-6);}.cls-15{fill:url(#Degradado_sin_nombre_55-7);}</style><linearGradient id="Degradado_sin_nombre_49" x1="1522.43" y1="683.34" x2="1522.43" y2="271.73" gradientUnits="userSpaceOnUse"><stop offset="0" stop-color="#f50"/><stop offset="0.21" stop-color="#ff6700"/><stop offset="0.62" stop-color="#ff9400"/><stop offset="1" stop-color="#ffc200"/></linearGradient><linearGradient id="Degradado_sin_nombre_72" x1="2272.2" y1="-399.08" x2="1355.04" y2="518.08" gradientUnits="userSpaceOnUse"><stop offset="0" stop-color="#ffc200"/><stop offset="0.18" stop-color="#ffbe00"/><stop offset="0.38" stop-color="#ffb100"/><stop offset="0.58" stop-color="#ff9c00"/><stop offset="0.78" stop-color="#ff7e00"/><stop offset="0.98" stop-color="#ff5900"/><stop offset="1" stop-color="#f50"/></linearGradient><linearGradient id="Degradado_sin_nombre_55" x1="953.6" y1="792.38" x2="1890.68" y2="792.38" gradientUnits="userSpaceOnUse"><stop offset="0" stop-color="#00c3ff"/><stop offset="0.5" stop-color="#009ce5"/><stop offset="0.93" stop-color="#003976"/></linearGradient><linearGradient id="Degradado_sin_nombre_49-2" x1="1146.47" y1="772.49" x2="1825.82" y2="1164.71" xlink:href="#Degradado_sin_nombre_49"/><linearGradient id="Degradado_sin_nombre_49-3" x1="947.96" y1="1121.44" x2="812.91" y2="824.74" xlink:href="#Degradado_sin_nombre_49"/><linearGradient id="Degradado_sin_nombre_49-4" x1="748.47" y1="644.83" x2="635.93" y2="448.4" xlink:href="#Degradado_sin_nombre_49"/><linearGradient id="Degradado_sin_nombre_55-2" x1="681.1" y1="356.73" x2="178.41" y2="688.05" xlink:href="#Degradado_sin_nombre_55"/><linearGradient id="Degradado_sin_nombre_55-3" x1="889.86" y1="655.84" x2="340.05" y2="1018.21" xlink:href="#Degradado_sin_nombre_55"/><linearGradient id="Degradado_sin_nombre_55-4" x1="109.32" y1="1487.49" x2="494.78" y2="1487.49" xlink:href="#Degradado_sin_nombre_55"/><linearGradient id="Degradado_sin_nombre_55-5" x1="570.55" y1="1487.49" x2="949.43" y2="1487.49" xlink:href="#Degradado_sin_nombre_55"/><linearGradient id="Degradado_sin_nombre_55-6" x1="1025.2" y1="1487.49" x2="1421.86" y2="1487.49" xlink:href="#Degradado_sin_nombre_55"/><linearGradient id="Degradado_sin_nombre_55-7" x1="1497.64" y1="1490.45" x2="1891.66" y2="1490.45" xlink:href="#Degradado_sin_nombre_55"/></defs><path class="cls-1" d="M1782.67,591l42.07-50.79a301.88,301.88,0,0,0,40.49-63.83q15.86-33.61,15.8-67.93V406.8c-.53-72.33-60.57-130.16-132.91-130.16l-584.3-.68c0,105.82,83.54,192.1,188.27,196.54.29,0,233.82.47,233.82.47C1734.85,481.91,1773.29,560.4,1782.67,591Z" transform="translate(-108.34 -275.96)"/><path class="cls-2" d="M1879.91,426.55a150.34,150.34,0,0,0,1.12-18.1V406.8c-.53-72.33-60.57-130.16-132.91-130.16l-584.3-.68a198,198,0,0,0,3.19,35.2l581.11.67C1815.22,311.83,1871.65,361.61,1879.91,426.55Z" transform="translate(-108.34 -275.96)"/><path class="cls-3" d="M1513.16,916.36,1782.67,591c-9.38-30.6-47.82-109.09-196.76-118L1270.16,849.13A353.08,353.08,0,0,0,1227.59,915q-17.83,35.73-17.88,70,0,42.6,15.13,75.51,14.76,32.24,37.38,51.27C1301,948.56,1448.78,920.62,1513.16,916.36Z" transform="translate(-108.34 -275.96)"/><path class="cls-4" d="M1243.22,985q0-34.29,17.88-70a353.08,353.08,0,0,1,42.57-65.87l313-372.86c-10.2-1.46-21-2.61-32.42-3.3L1268.48,849.13A353.64,353.64,0,0,0,1225.9,915q-17.84,35.73-17.88,70,0,42.6,15.14,75.51,14.74,32.24,37.38,51.27a286.25,286.25,0,0,1,9-30.48,173.83,173.83,0,0,1-11.24-20.79Q1243.26,1027.59,1243.22,985Z" transform="translate(-108.34 -275.96)"/><path class="cls-5" d="M1882.45,957.57l-13.06-41.2H1513.16c-64.5,4.27-212.7,32.31-251.15,196.34H1804.2q38.41,0,62.45-23.32c16-15.55,24-41.21,24-76.88A181.24,181.24,0,0,0,1882.45,957.57Z" transform="translate(-108.34 -275.96)"/><path class="cls-4" d="M1529.72,941.2h347.55l-7.88-24.84H1513.16c-64.5,4.27-212.7,32.31-251.15,196.34h23.62C1332.54,970.69,1468.64,945.25,1529.72,941.2Z" transform="translate(-108.34 -275.96)"/><path class="cls-6" d="M1031.08,967.91,919.56,774.76,837.6,758,723,784.59,673.58,855.9s47.39-4.81,107.75,71.92c29.48,37.47,49.37,91.32,60.69,141.12a54.86,54.86,0,0,0,53.45,42.85H948C1021.85,1111.79,1068,1031.86,1031.08,967.91Z" transform="translate(-108.34 -275.96)"/><path class="cls-4" d="M764.55,777l-42,8.34-48.94,70.6s47.39-4.81,107.75,71.92c29.48,37.47,49.37,91.32,60.69,141.12a54.85,54.85,0,0,0,53.45,42.85H948c3.28,0,6.43-.34,9.6-.65,13.86-22.6-1.64-84.71-55.12-181.42C848.91,832.82,764.55,777,764.55,777Z" transform="translate(-108.34 -275.96)"/><path class="cls-7" d="M707.88,408.12,828.32,616.73c5.68,9.84-4.22,21.16-14.82,17.06-54.86-21.24-108.26-17.35-139.87-11.7a43.07,43.07,0,0,1-45-20.65L507.84,392.32Z" transform="translate(-108.34 -275.96)"/><path class="cls-4" d="M609.52,403.05,537,442.79l91.6,158.65a43.07,43.07,0,0,0,45,20.65,286.25,286.25,0,0,1,59.79-4.27Z" transform="translate(-108.34 -275.96)"/><path class="cls-8" d="M659.27,323.92c-36.92-63.94-129.21-63.94-166.13,0L487.31,334h0L238.93,764.23c-8.29,14.35,8.58,29.89,22.27,20.56C346.1,726.89,435,681.64,469.8,664.64a38.18,38.18,0,0,0,19.3-21.45c7.22-20.3,26.6-63.17,77.38-133.44,102.31-141.57,173.43-46.15,173.44-46.14Z" transform="translate(-108.34 -275.96)"/><path class="cls-4" d="M739.92,463.61,670.26,343c-37.38-6.75-79.82,2-121.16,49.37-46.18,52.91-154.59,251.91-200.27,337.31,52.57-30.77,98.3-53.91,121-65a38.23,38.23,0,0,0,19.3-21.46c7.22-20.3,26.6-63.17,77.38-133.44C668.79,368.18,739.91,463.6,739.92,463.61Z" transform="translate(-108.34 -275.96)"/><path class="cls-9" d="M871.88,800.91c53.71-8.14,74.69,23,85.66,39.62L892.9,728.58c-58-100.37-225.14-100-401.62-21C280,802.22,131,951.23,131,951.23h0l-9.64,16.68c-36.92,63.95,9.23,143.88,83.07,143.88h32.77a97.69,97.69,0,0,0,49-13c26-15.06,69.32-49.7,140.7-103.46C623.77,847,807.34,810.68,871.88,800.91Z" transform="translate(-108.34 -275.96)"/><path class="cls-4" d="M608.37,758c-195.64,61.39-403.44,253-474.51,322.74a94.46,94.46,0,0,0,70.53,31.07h32.78a97.69,97.69,0,0,0,49-13c26-15.06,69.32-49.7,140.7-103.46C623.77,847,807.34,810.68,871.88,800.91c53.71-8.14,74.69,23,85.66,39.62L892.9,728.58c-.42-.73-.9-1.4-1.33-2.11C828.56,714.7,738.57,717.13,608.37,758Z" transform="translate(-108.34 -275.96)"/><path class="cls-10" d="M163,1692.41q-53.72-31.64-53.7-87.64,0-24.36,18.45-39.53t61.94-15.16q2.63,48.11,33.27,72.81t86,24.71q42.82,0,67.21-14.82t24.38-41.19q0-17.79-9.23-29t-32-20.42q-22.72-9.23-66.22-19.11-65.89-15.15-103.44-34.27t-54.36-45.46q-16.81-26.34-16.81-65.89,0-37.56,22.74-66.22t63.58-44.48q40.84-15.81,94.88-15.81,51.4,0,92.25,13.51t63.92,37.88q23.05,24.39,23.06,56,0,24.39-18.12,38.55t-59.63,15.48q-3.32-44.13-27-64.57t-74.46-20.43q-41.5,0-63.91,13.18t-22.4,38.22q0,17.13,8.56,28t29.32,19.44q20.76,8.57,59.63,17.13,67.86,15.17,107.74,34.59t58,46.45q18.12,27,18.12,66.56,0,40.18-22.73,70.5t-64.57,46.45Q365.62,1724,309,1724,216.71,1724,163,1692.41Z" transform="translate(-108.34 -275.96)"/><path class="cls-10" d="M570.55,1320.78q0-34.24,24.71-52t72.15-17.79V1444H852.57V1320.78q0-34.24,24.71-52t72.15-17.79v403.25q0,34.27-24.71,52T852.57,1724V1527.68H667.41v126.51q0,34.27-24.71,52T570.55,1724Z" transform="translate(-108.34 -275.96)"/><path class="cls-10" d="M1124,1702.62q-45.46-21.4-72.15-58t-26.69-78.74V1409.08q0-42.16,26.69-78.74t72.15-58q45.46-21.4,99.49-21.41t99.5,21.41q45.46,21.42,72.15,58t26.68,78.74V1565.9q0,42.16-26.68,78.74t-72.15,58q-45.46,21.42-99.5,21.42T1124,1702.62Zm172.63-84q28.32-21.08,28.33-54.69V1411.05q0-33.6-28.33-54.69t-73.14-21.08q-44.82,0-73.14,21.08t-28.33,54.69v152.87q0,33.6,28.33,54.69t73.14,21.08Q1268.34,1639.69,1296.67,1618.61Z" transform="translate(-108.34 -275.96)"/><path class="cls-10" d="M1497.64,1301q0-19.1,14.16-31.62t34.6-12.52h179.88q48.75,0,86.32,19.44t58.31,54.36q20.74,34.92,20.75,81,0,46.8-20.42,82t-57.66,54.36q-37.23,19.11-87.3,19.1H1594.5v87q0,34.27-24.71,52t-72.15,17.8Zm228.64,182.52q32.94,0,50.74-18.78t17.79-53.7q0-33.6-17.79-52t-50.74-18.45H1594.5v143Z" transform="translate(-108.34 -275.96)"/><g class="cls-11"><path class="cls-12" d="M163,1692.41q-53.72-31.64-53.7-87.64,0-24.36,18.45-39.53t61.94-15.16q2.63,48.11,33.27,72.81t86,24.71q42.82,0,67.21-14.82t24.38-41.19q0-17.79-9.23-29t-32-20.42q-22.72-9.23-66.22-19.11-65.89-15.15-103.44-34.27t-54.36-45.46q-16.81-26.34-16.81-65.89,0-37.56,22.74-66.22t63.58-44.48q40.84-15.81,94.88-15.81,51.4,0,92.25,13.51t63.92,37.88q23.05,24.39,23.06,56,0,24.39-18.12,38.55t-59.63,15.48q-3.32-44.13-27-64.57t-74.46-20.43q-41.5,0-63.91,13.18t-22.4,38.22q0,17.13,8.56,28t29.32,19.44q20.76,8.57,59.63,17.13,67.86,15.17,107.74,34.59t58,46.45q18.12,27,18.12,66.56,0,40.18-22.73,70.5t-64.57,46.45Q365.62,1724,309,1724,216.71,1724,163,1692.41Z" transform="translate(-108.34 -275.96)"/><path class="cls-13" d="M570.55,1320.78q0-34.24,24.71-52t72.15-17.79V1444H852.57V1320.78q0-34.24,24.71-52t72.15-17.79v403.25q0,34.27-24.71,52T852.57,1724V1527.68H667.41v126.51q0,34.27-24.71,52T570.55,1724Z" transform="translate(-108.34 -275.96)"/><path class="cls-14" d="M1124,1702.62q-45.46-21.4-72.15-58t-26.69-78.74V1409.08q0-42.16,26.69-78.74t72.15-58q45.46-21.4,99.49-21.41t99.5,21.41q45.46,21.42,72.15,58t26.68,78.74V1565.9q0,42.16-26.68,78.74t-72.15,58q-45.46,21.42-99.5,21.42T1124,1702.62Zm172.63-84q28.32-21.08,28.33-54.69V1411.05q0-33.6-28.33-54.69t-73.14-21.08q-44.82,0-73.14,21.08t-28.33,54.69v152.87q0,33.6,28.33,54.69t73.14,21.08Q1268.34,1639.69,1296.67,1618.61Z" transform="translate(-108.34 -275.96)"/><path class="cls-15" d="M1497.64,1301q0-19.1,14.16-31.62t34.6-12.52h179.88q48.75,0,86.32,19.44t58.31,54.36q20.74,34.92,20.75,81,0,46.8-20.42,82t-57.66,54.36q-37.23,19.11-87.3,19.1H1594.5v87q0,34.27-24.71,52t-72.15,17.8Zm228.64,182.52q32.94,0,50.74-18.78t17.79-53.7q0-33.6-17.79-52t-50.74-18.45H1594.5v143Z" transform="translate(-108.34 -275.96)"/></g></svg>